<?xml version="1.0" encoding="UTF-8" standalone="no"?>
<!-- Created with Inkscape (http://www.inkscape.org/) -->

<svg
   xmlns:dc="http://purl.org/dc/elements/1.1/"
   xmlns:cc="http://creativecommons.org/ns#"
   xmlns:rdf="http://www.w3.org/1999/02/22-rdf-syntax-ns#"
   xmlns:svg="http://www.w3.org/2000/svg"
   xmlns="http://www.w3.org/2000/svg"
   xmlns:sodipodi="http://sodipodi.sourceforge.net/DTD/sodipodi-0.dtd"
   xmlns:inkscape="http://www.inkscape.org/namespaces/inkscape"
   id="svg2"
   xml:space="preserve"
   version="1.0"
   viewBox="0 0 317.43736 366.94746"
   inkscape:version="0.48.4 r"
   width="100%"
   height="100%"
   sodipodi:docname="plane.svg"
   inkscape:export-filename="T:\IT\fluglotse\plane.png"
   inkscape:export-xdpi="69.783936"
   inkscape:export-ydpi="69.783936"><defs
     id="defs9" /><sodipodi:namedview
     pagecolor="#ffffff"
     bordercolor="#666666"
     borderopacity="1"
     objecttolerance="10"
     gridtolerance="10"
     guidetolerance="10"
     inkscape:pageopacity="0"
     inkscape:pageshadow="2"
     inkscape:window-width="1857"
     inkscape:window-height="1057"
     id="namedview7"
     showgrid="false"
     showguides="true"
     inkscape:guide-bbox="true"
     inkscape:zoom="2"
     inkscape:cx="95.775755"
     inkscape:cy="197.15534"
     inkscape:window-x="55"
     inkscape:window-y="-8"
     inkscape:window-maximized="1"
     inkscape:current-layer="svg2"
     fit-margin-top="30"
     fit-margin-left="30"
     fit-margin-right="30"
     fit-margin-bottom="30" /><metadata
     id="metadata5"><rdf:RDF><cc:Work><dc:format>image/svg+xml</dc:format><dc:type
           rdf:resource="http://purl.org/dc/dcmitype/StillImage" /><cc:license
           rdf:resource="http://creativecommons.org/licenses/publicdomain/" /><dc:publisher><cc:Agent
             rdf:about="http://openclipart.org/"><dc:title>Openclipart</dc:title></cc:Agent></dc:publisher><dc:title>Boeing 737 outline silhouette</dc:title><dc:date>2007-04-27T05:51:16</dc:date><dc:description>Boeing 737 outline silhouette</dc:description><dc:source>https://openclipart.org/detail/4108/boeing-737-outline-silhouette-by-clue</dc:source><dc:creator><cc:Agent><dc:title>Clue</dc:title></cc:Agent></dc:creator><dc:subject><rdf:Bag><rdf:li>737</rdf:li><rdf:li>aviation</rdf:li><rdf:li>boeing</rdf:li><rdf:li>fly</rdf:li><rdf:li>outline</rdf:li><rdf:li>plane</rdf:li><rdf:li>silhouette</rdf:li><rdf:li>transportation</rdf:li><rdf:li>wing</rdf:li></rdf:Bag></dc:subject></cc:Work><cc:License
         rdf:about="http://creativecommons.org/licenses/publicdomain/"><cc:permits
           rdf:resource="http://creativecommons.org/ns#Reproduction" /><cc:permits
           rdf:resource="http://creativecommons.org/ns#Distribution" /><cc:permits
           rdf:resource="http://creativecommons.org/ns#DerivativeWorks" /></cc:License></rdf:RDF></metadata><g
     id="g4042"
     transform="translate(29.81067,30.000004)"
     style="fill:#ffffff;fill-opacity:1"><path
       sodipodi:nodetypes="cccscscc"
       inkscape:connector-curvature="0"
       id="path3915-1"
       d="m 118.44101,252.53125 c 19.65543,20.03341 12.67496,25.06288 3.46875,32.34375 l -38,9.25 c 0,0 0.0312,-8.9525 0.0312,-10.3125 0,-1.03 0.0625,-1.79 2.3125,-3.5 2.29,-1.74 29.5775,-21.96625 30.9375,-23.15625 1.36,-1.19 1.97,-1.815 1.25,-4.625 z"
       style="fill:#ffffff;fill-opacity:1;fill-rule:evenodd" /><path
       sodipodi:nodetypes="cccscscc"
       inkscape:connector-curvature="0"
       id="path3915"
       d="m 139.375,252.53125 c -19.65543,20.03341 -12.67496,25.06288 -3.46875,32.34375 l 38,9.25 c 0,0 -0.0312,-8.9525 -0.0312,-10.3125 0,-1.03 -0.0625,-1.79 -2.3125,-3.5 -2.29,-1.74 -29.5775,-21.96625 -30.9375,-23.15625 -1.36,-1.19 -1.97,-1.815 -1.25,-4.625 z"
       style="fill:#ffffff;fill-opacity:1;fill-rule:evenodd" /></g><g
     id="g3988"
     transform="translate(30.210305,30.000004)"
     style="fill:#ffffff;fill-opacity:1"><path
       sodipodi:nodetypes="ccccccssccccccccccccccsccccccccc"
       inkscape:connector-curvature="0"
       transform="translate(0,-4.5162543e-6)"
       id="path3958"
       d="m 175.03125,146.375 c -3.9396,-3.14062 -7.87984,-6.28082 -11.78125,-9.46875 -0.28,0.11 -5.2175,-4.67375 -7.9375,-6.59375 -2.72,-1.93 -7.34625,-5.9475 -7.90625,-7.1875 -0.57,-1.25 -0.62875,-1.4425 -0.96875,-0.3125 -0.34,1.14 -0.29375,2.2725 0.15625,3.0625 0.46,0.79 0.7,1.8 0.25,2.25 -0.17,0.17 -1.535,-0.945 -1.875,-1.625 -0.34,-0.68 0.001,-1.97125 -0.21875,-2.53125 -0.23,-0.57 -1.13375,-2.23375 -1.09375,-3.59375 -14.68103,3.57862 -23.35213,53.73386 -0.28125,66.0625 0.59,-0.38 22.03125,2.625 22.03125,2.625 l 0.0312,-1.34375 10.1875,1.53125 c 0,0 -0.1925,1.7175 0.1875,1.9375 0.86,0.48 40.41,18.0675 40.75,18.1875 0.26,-0.16 0.11625,-1.5225 0.15625,-3.5625 0.17,0.04 0.21875,2.0625 0.21875,2.0625 l 36.03125,16.34375 0.0625,2.375 1.1875,-0.0312 0.21875,-1.5 c 0,0 1.5,1.05625 1.5,1.90625 0,0.85 0.49125,-2.8625 0.53125,-4.5625 0.05,-1.74 -0.34375,-3.40625 -0.34375,-3.40625 0,0 1.21375,0.39125 1.09375,-1.21875 -0.08,-1.03 -3.25,-5.75 -3.25,-5.75 0,0 -0.2275,-0.6875 -0.1875,-1.1875 0.05,-0.58 -0.66125,-0.95125 -1.03125,-1.28125 -0.22,-0.19 0,-1.25 0,-1.25 0,0 -11.925,-10.24125 -32.625,-26.28125 -20.65,-16.02 -45.09375,-35.65625 -45.09375,-35.65625 z"
       style="fill:#ffffff;fill-opacity:1;fill-rule:evenodd" /><path
       sodipodi:nodetypes="ccccccssccccccccccccccsccccccccc"
       inkscape:connector-curvature="0"
       id="path3958-9"
       d="m 81.98549,146.37499 c 3.9396,-3.14062 7.87984,-6.28082 11.78125,-9.46875 0.28,0.11 5.2175,-4.67375 7.9375,-6.59375 2.72,-1.93 7.34625,-5.9475 7.90625,-7.1875 0.57,-1.25 0.62875,-1.4425 0.96875,-0.3125 0.34,1.14 0.29375,2.2725 -0.15625,3.0625 -0.46,0.79 -0.7,1.8 -0.25,2.25 0.17,0.17 1.535,-0.945 1.875,-1.625 0.34,-0.68 -0.001,-1.97125 0.21875,-2.53125 0.23,-0.57 1.13375,-2.23375 1.09375,-3.59375 14.68103,3.57862 23.35213,53.73386 0.28125,66.0625 -0.59,-0.38 -22.03125,2.625 -22.03125,2.625 l -0.0312,-1.34375 -10.1875,1.53125 c 0,0 0.1925,1.7175 -0.1875,1.9375 -0.86,0.48 -40.41,18.0675 -40.75,18.1875 -0.26,-0.16 -0.11625,-1.5225 -0.15625,-3.5625 -0.17,0.04 -0.21875,2.0625 -0.21875,2.0625 l -36.0312504,16.34375 -0.0625,2.375 -1.1875,-0.0312 -0.2187501,-1.5 c 0,0 -1.4999999,1.05625 -1.4999999,1.90625 0,0.85 -0.49125014,-2.8625 -0.53125014,-4.5625 -0.05,-1.74 0.3437501,-3.40625 0.3437501,-3.40625 0,0 -1.2137501,0.39125 -1.0937501,-1.21875 0.08,-1.03 3.25000014,-5.75 3.25000014,-5.75 0,0 0.2275,-0.6875 0.1875,-1.1875 -0.05,-0.58 0.66125,-0.95125 1.03125,-1.28125 0.22,-0.19 0,-1.25 0,-1.25 0,0 11.9250004,-10.24125 32.6250004,-26.28125 20.65,-16.02 45.09375,-35.65625 45.09375,-35.65625 z"
       style="fill:#ffffff;fill-opacity:1;fill-rule:evenodd" /></g><g
     id="g3992"
     transform="translate(30.210305,30.000004)"><path
       sodipodi:nodetypes="ccccccccccsc"
       inkscape:connector-curvature="0"
       transform="translate(0,-4.5162543e-6)"
       id="path3913"
       d="m 174.34375,118.96875 c -1.53,-0.23 -7.47625,-0.075 -8.90625,0.125 -1.35,0.19 -2.18625,0.3825 -2.40625,2.3125 -0.23,1.92 -0.295,8.54 -0.125,11.25 0.12,1.94 0.69625,4.8175 0.40625,4.9375 3.90141,3.18793 7.65415,6.20313 11.59375,9.34375 0,0 0.124,-1.69125 0.34375,-3.28125 0.23,-1.58 0.375,-2.28125 0.375,-2.28125 0,0 1.25375,-0.38625 1.59375,-1.40625 0.26,-0.76 0.9225,-6.27 0.8125,-11.25 -0.12,-4.98 -0.41,-7.585 -0.75,-8.375 -0.34,-0.79 -1.4875,-1.165 -2.9375,-1.375 z"
       style="fill:#000000;fill-rule:evenodd" /><path
       sodipodi:nodetypes="ccccccccccsc"
       inkscape:connector-curvature="0"
       id="path3913-9"
       d="m 82.67299,118.96874 c 1.53,-0.23 7.47625,-0.075 8.90625,0.125 1.35,0.19 2.18625,0.3825 2.40625,2.3125 0.23,1.92 0.295,8.54 0.125,11.25 -0.12,1.94 -0.69625,4.8175 -0.40625,4.9375 -3.90141,3.18793 -7.65415,6.20313 -11.59375,9.34375 0,0 -0.124,-1.69125 -0.34375,-3.28125 -0.23,-1.58 -0.375,-2.28125 -0.375,-2.28125 0,0 -1.25375,-0.38625 -1.59375,-1.40625 -0.26,-0.76 -0.9225,-6.27 -0.8125,-11.25 0.12,-4.98 0.41,-7.585 0.75,-8.375 0.34,-0.79 1.4875,-1.165 2.9375,-1.375 z"
       style="fill:#000000;fill-rule:evenodd" /></g><path
     style="fill:#000000;fill-rule:evenodd"
     d="m 158.64072,29.999999 c -0.004,0.0075 0.004,0.02367 0,0.03125 -1.15078,0.114561 -3.63891,1.48 -4.74999,3.25 -1.25,1.982 -3.6875,4.72075 -6.9375,18.46875 -3.58,15.145002 -3.85135,23.5915 -3.78125,51.937501 0.07,26.486 0.33249,38.5975 0.5625,46.6875 0.18103,22.01612 0.10213,44.04636 0.28125,66.0625 0.42315,0.26803 -0.0263,11.89034 0.0312,24.15625 0.0449,4.67885 0.0666,9.22363 0.4375,14.90625 1.01999,15.62 2.77124,24.01125 3.53125,27.03125 0.97655,8.92842 1.91226,20.03879 3.46875,32.34375 0,0 0.0902,0.98601 0.21875,2.03125 0.12161,0.98857 0.29515,2.04516 0.5625,2.3125 0.54999,0.55 1.6875,0.34375 1.6875,0.34375 0,0 0.76749,7.83375 1.1875,8.34375 0.43,0.5 1.125,0.78125 1.125,0.78125 0,0 1.51207,7.1243 2.34374,8.1875 0.0962,0.0873 0.13601,0.10547 0.2185,0 0.83167,-1.0632 2.34375,-8.1875 2.34375,-8.1875 0,0 0.695,-0.28125 1.125,-0.78125 0.42,-0.51 1.1875,-8.34375 1.1875,-8.34375 0,0 1.1375,0.20625 1.6875,-0.34375 0.26734,-0.26734 0.44089,-1.32393 0.5625,-2.3125 0.12858,-1.04524 0.21875,-2.03125 0.21875,-2.03125 1.55649,-12.30496 2.4922,-23.41533 3.46875,-32.34375 0.76,-3.02 2.51125,-11.41125 3.53125,-27.03125 0.37084,-5.68262 0.39256,-10.2274 0.4375,-14.90625 0.0575,-12.26591 -0.3919,-23.88822 0.0312,-24.15625 0.17912,-22.01614 0.10022,-44.04638 0.28125,-66.0625 0.23,-8.09 0.4925,-20.2015 0.5625,-46.6875 0.0701,-28.346 -0.20125,-36.7925 -3.78125,-51.937501 -3.25,-13.747999 -5.6875,-16.48675 -6.9375,-18.46875 -1.11108,-1.77 -3.59921,-3.135439 -4.75,-3.25 -0.0403,-0.004 -0.0881,-0.0304 -0.125,-0.03125 l -0.0312,0 z"
     id="path3824"
     inkscape:connector-curvature="0"
     sodipodi:nodetypes="cccccccccccccccccccccssccccccccccccc" /></svg>