<?xml version="1.0" encoding="UTF-8" standalone="no"?>
<!-- Created with Inkscape (http://www.inkscape.org/) -->

<svg
   xmlns:dc="http://purl.org/dc/elements/1.1/"
   xmlns:cc="http://creativecommons.org/ns#"
   xmlns:rdf="http://www.w3.org/1999/02/22-rdf-syntax-ns#"
   xmlns:svg="http://www.w3.org/2000/svg"
   xmlns="http://www.w3.org/2000/svg"
   xmlns:sodipodi="http://sodipodi.sourceforge.net/DTD/sodipodi-0.dtd"
   xmlns:inkscape="http://www.inkscape.org/namespaces/inkscape"
   width="317.4541"
   height="366.94736"
   id="svg4085"
   version="1.1"
   inkscape:version="0.48.4 r"
   sodipodi:docname="plane_shadow.svg"
   inkscape:export-filename="T:\IT\fluglotse\plane_shadow.png"
   inkscape:export-xdpi="66.121384"
   inkscape:export-ydpi="66.121384">
  <defs
     id="defs4087">
    <filter
       inkscape:collect="always"
       id="filter5411">
      <feGaussianBlur
         inkscape:collect="always"
         stdDeviation="2.9750076"
         id="feGaussianBlur5413" />
    </filter>
    <filter
       inkscape:collect="always"
       id="filter5415">
      <feGaussianBlur
         inkscape:collect="always"
         stdDeviation="2.9750076"
         id="feGaussianBlur5417" />
    </filter>
    <filter
       inkscape:collect="always"
       id="filter5419">
      <feGaussianBlur
         inkscape:collect="always"
         stdDeviation="2.9750076"
         id="feGaussianBlur5421" />
    </filter>
  </defs>
  <sodipodi:namedview
     id="base"
     pagecolor="#ffffff"
     bordercolor="#666666"
     borderopacity="1.0"
     inkscape:pageopacity="0.0"
     inkscape:pageshadow="2"
     inkscape:zoom="1.979899"
     inkscape:cx="233.95081"
     inkscape:cy="151.01681"
     inkscape:document-units="px"
     inkscape:current-layer="layer1"
     showgrid="false"
     inkscape:window-width="1858"
     inkscape:window-height="1057"
     inkscape:window-x="54"
     inkscape:window-y="-8"
     inkscape:window-maximized="1"
     fit-margin-top="30"
     fit-margin-left="30"
     fit-margin-right="30"
     fit-margin-bottom="30" />
  <metadata
     id="metadata4090">
    <rdf:RDF>
      <cc:Work
         rdf:about="">
        <dc:format>image/svg+xml</dc:format>
        <dc:type
           rdf:resource="http://purl.org/dc/dcmitype/StillImage" />
        <dc:title></dc:title>
      </cc:Work>
    </rdf:RDF>
  </metadata>
  <g
     inkscape:label="Ebene 1"
     inkscape:groupmode="layer"
     id="layer1"
     transform="translate(-25.929154,-47.09375)">
    <g
       transform="translate(55.746865,77.106047)"
       id="g4042"
       style="fill:#000000;fill-opacity:1;filter:url(#filter5411)">
      <path
         style="fill:#000000;fill-opacity:1;fill-rule:evenodd"
         d="m 184.5625,77.09375 c -0.004,0.0075 0.004,0.02367 0,0.03125 -1.15078,0.114561 -3.63892,1.48 -4.75,3.25 -1.25,1.982 -3.6875,4.72075 -6.9375,18.46875 -3.58,15.145 -3.85135,23.5915 -3.78125,51.9375 0.07,26.486 0.33249,38.5975 0.5625,46.6875 1.7e-4,0.0208 -1.7e-4,0.0417 0,0.0625 -0.0532,-0.0142 -0.10288,-0.0495 -0.15625,-0.0625 0.04,1.36 -0.86375,3.02375 -1.09375,3.59375 -0.21975,0.56 0.12125,1.85125 -0.21875,2.53125 -0.34,0.68 -1.705,1.795 -1.875,1.625 -0.45,-0.45 -0.21,-1.46 0.25,-2.25 0.45,-0.79 0.49625,-1.9225 0.15625,-3.0625 -0.34,-1.13 -0.39875,-0.9375 -0.96875,0.3125 -0.56,1.24 -5.18625,5.2575 -7.90625,7.1875 -2.72,1.92 -7.6575,6.70375 -7.9375,6.59375 -0.0403,0.0329 -0.0847,0.0608 -0.125,0.0937 0.0542,-0.96823 0.38024,-2.91276 0.46875,-4.34375 0.17,-2.71 0.105,-9.33 -0.125,-11.25 -0.22,-1.93 -1.05625,-2.1225 -2.40625,-2.3125 -1.43,-0.2 -7.37625,-0.355 -8.90625,-0.125 -1.45,0.21 -2.5975,0.585 -2.9375,1.375 -0.34,0.79 -0.63,3.395 -0.75,8.375 -0.11,4.98 0.5525,10.49 0.8125,11.25 0.34,1.02 1.59375,1.40625 1.59375,1.40625 0,0 0.145,0.70125 0.375,2.28125 0.1531,1.10779 0.23066,2.05639 0.28125,2.65625 -0.0229,0.0182 -0.0396,0.0443 -0.0625,0.0625 0,0 -24.44375,19.63625 -45.09375,35.65625 -20.7,16.04 -32.625,26.28125 -32.625,26.28125 0,0 0.22,1.06 0,1.25 -0.37,0.33 -1.08125,0.70125 -1.03125,1.28125 0.04,0.5 -0.1875,1.1875 -0.1875,1.1875 0,0 -3.17,4.72 -3.25,5.75 -0.12,1.61 1.09375,1.21875 1.09375,1.21875 0,0 -0.39375,1.66625 -0.34375,3.40625 0.04,1.7 0.53125,5.4125 0.53125,4.5625 0,-0.85 1.5,-1.90625 1.5,-1.90625 l 0.21875,1.5 1.1875,0.0312 0.0625,-2.375 36.03125,-16.34375 c 0,0 0.04875,-2.0225 0.21875,-2.0625 0.04,2.04 -0.10375,3.4025 0.15625,3.5625 0.34,-0.12 39.89,-17.7075 40.75,-18.1875 0.38,-0.22 0.1875,-1.9375 0.1875,-1.9375 l 10.1875,-1.53125 0.0312,1.34375 c 0,0 21.44125,-3.005 22.03125,-2.625 0.0539,-0.0288 0.10266,-0.0645 0.15625,-0.0937 2.5e-4,0.0313 -2.5e-4,0.0625 0,0.0937 0.42315,0.26803 -0.0263,11.89034 0.0312,24.15625 0.0449,4.67885 0.0666,9.22363 0.4375,14.90625 1.01999,15.62 2.77124,24.01125 3.53125,27.03125 0.10653,0.97402 0.23733,2.06908 0.34375,3.09375 -0.25198,0.57483 -0.71897,0.98457 -1.34375,1.53125 -1.36,1.19 -28.6475,21.41625 -30.9375,23.15625 -2.25,1.71 -2.3125,2.47 -2.3125,3.5 0,1.36 -0.0312,10.3125 -0.0312,10.3125 l 37.75,-9.1875 c 0.005,0.0573 0.0941,0.9553 0.21875,1.96875 0.12161,0.98857 0.29515,2.04516 0.5625,2.3125 0.54999,0.55 1.6875,0.34375 1.6875,0.34375 0,0 0.76749,7.83375 1.1875,8.34375 0.43,0.5 1.125,0.78125 1.125,0.78125 0,0 1.51208,7.1243 2.34375,8.1875 0.0962,0.0873 0.13626,0.10547 0.21875,0 0.83167,-1.0632 2.34375,-8.1875 2.34375,-8.1875 0,0 0.695,-0.28125 1.125,-0.78125 0.42,-0.51 1.1875,-8.34375 1.1875,-8.34375 0,0 1.1375,0.20625 1.6875,-0.34375 0.26734,-0.26734 0.44089,-1.32393 0.5625,-2.3125 0.12467,-1.01345 0.21348,-1.91142 0.21875,-1.96875 l 37.78125,9.1875 c 0,0 -0.0312,-8.9525 -0.0312,-10.3125 0,-1.03 -0.0625,-1.79 -2.3125,-3.5 -2.29,-1.74 -29.5775,-21.96625 -30.9375,-23.15625 -0.63409,-0.55483 -1.09452,-0.9746 -1.34375,-1.5625 0.10524,-1.01282 0.20714,-2.09923 0.3125,-3.0625 0.76,-3.02 2.51125,-11.41125 3.53125,-27.03125 0.37084,-5.68262 0.39256,-10.2274 0.4375,-14.90625 0.0575,-12.26591 -0.39185,-23.88822 0.0312,-24.15625 2.5e-4,-0.0313 -2.5e-4,-0.0625 0,-0.0937 0.0616,0.0337 0.12548,0.0606 0.1875,0.0937 0.59,-0.38 22.03125,2.625 22.03125,2.625 l 0.0312,-1.34375 10.1875,1.53125 c 0,0 -0.1925,1.7175 0.1875,1.9375 0.86,0.48 40.41,18.0675 40.75,18.1875 0.26,-0.16 0.11625,-1.5225 0.15625,-3.5625 0.17,0.04 0.21875,2.0625 0.21875,2.0625 l 36.03125,16.34375 0.0625,2.375 1.1875,-0.0312 0.21875,-1.5 c 0,0 1.5,1.05625 1.5,1.90625 0,0.85 0.49125,-2.8625 0.53125,-4.5625 0.05,-1.74 -0.34375,-3.40625 -0.34375,-3.40625 0,0 1.21375,0.39125 1.09375,-1.21875 -0.08,-1.03 -3.25,-5.75 -3.25,-5.75 0,0 -0.2275,-0.6875 -0.1875,-1.1875 0.05,-0.58 -0.66125,-0.95125 -1.03125,-1.28125 -0.22,-0.19 0,-1.25 0,-1.25 0,0 -11.925,-10.24125 -32.625,-26.28125 -20.65,-16.02 -45.09375,-35.65625 -45.09375,-35.65625 -0.0229,-0.0182 -0.0396,-0.0443 -0.0625,-0.0625 0.0506,-0.59986 0.12815,-1.54846 0.28125,-2.65625 0.23,-1.58 0.375,-2.28125 0.375,-2.28125 0,0 1.25375,-0.38625 1.59375,-1.40625 0.26,-0.76 0.9225,-6.27 0.8125,-11.25 -0.12,-4.98 -0.41,-7.585 -0.75,-8.375 -0.34,-0.79 -1.4875,-1.165 -2.9375,-1.375 -1.53,-0.23 -7.47625,-0.075 -8.90625,0.125 -1.35,0.19 -2.18625,0.3825 -2.40625,2.3125 -0.23,1.92 -0.295,8.54 -0.125,11.25 0.0885,1.43099 0.41452,3.37552 0.46875,4.34375 -0.0403,-0.0329 -0.0847,-0.0608 -0.125,-0.0937 -0.28,0.11 -5.2175,-4.67375 -7.9375,-6.59375 -2.72,-1.93 -7.34625,-5.9475 -7.90625,-7.1875 -0.57,-1.25 -0.62875,-1.4425 -0.96875,-0.3125 -0.34,1.14 -0.29375,2.2725 0.15625,3.0625 0.46,0.79 0.7,1.8 0.25,2.25 -0.17,0.17 -1.535,-0.945 -1.875,-1.625 -0.34,-0.68 0.001,-1.97125 -0.21875,-2.53125 -0.23,-0.57 -1.13375,-2.23375 -1.09375,-3.59375 -0.0628,0.0153 -0.12489,0.0455 -0.1875,0.0625 1.7e-4,-0.0208 -1.7e-4,-0.0417 0,-0.0625 0.23,-8.09 0.4925,-20.2015 0.5625,-46.6875 0.0701,-28.346 -0.20125,-36.7925 -3.78125,-51.9375 -3.25,-13.747999 -5.6875,-16.48675 -6.9375,-18.46875 -1.11108,-1.77 -3.59921,-3.135439 -4.75,-3.25 -0.0403,-0.004 -0.0881,-0.0304 -0.125,-0.03125 l -0.0312,0 z"
         transform="translate(-55.746865,-77.106047)"
         id="path3915-1"
         inkscape:connector-curvature="0" />
    </g>
    <g
       id="g3988"
       transform="translate(56.146495,77.106047)"
       style="fill:#000000;fill-opacity:1;filter:url(#filter5415)" />
    <g
       id="g3992"
       transform="translate(56.146495,77.106047)"
       style="fill:#000000;fill-opacity:1;filter:url(#filter5419)" />
  </g>
</svg>
